<svg width="105" height="96" viewBox="0 0 105 96" fill="none" xmlns="http://www.w3.org/2000/svg">
<path d="M30.6248 0.5H74.3748C91.0415 0.5 104.583 12.85 104.583 28.05V67.95C104.583 75.2567 101.401 82.2642 95.7354 87.4308C90.0702 92.5974 82.3866 95.5 74.3748 95.5H30.6248C13.9582 95.5 0.416504 83.15 0.416504 67.95V28.05C0.416504 20.7433 3.59916 13.7358 9.26432 8.56921C14.9295 3.40258 22.6131 0.5 30.6248 0.5ZM29.5832 10C24.6104 10 19.8412 11.8016 16.3249 15.0085C12.8086 18.2153 10.8332 22.5648 10.8332 27.1V68.9C10.8332 78.3525 19.2186 86 29.5832 86H75.4165C80.3893 86 85.1584 84.1984 88.6748 80.9915C92.1911 77.7847 94.1665 73.4352 94.1665 68.9V27.1C94.1665 17.6475 85.7811 10 75.4165 10H29.5832ZM79.8436 17.125C81.5703 17.125 83.2262 17.7506 84.4471 18.8641C85.6681 19.9776 86.354 21.4878 86.354 23.0625C86.354 24.6372 85.6681 26.1474 84.4471 27.2609C83.2262 28.3744 81.5703 29 79.8436 29C78.1169 29 76.461 28.3744 75.24 27.2609C74.0191 26.1474 73.3332 24.6372 73.3332 23.0625C73.3332 21.4878 74.0191 19.9776 75.24 18.8641C76.461 17.7506 78.1169 17.125 79.8436 17.125ZM52.4998 24.25C59.4065 24.25 66.0303 26.7522 70.9141 31.2062C75.7978 35.6602 78.5415 41.7011 78.5415 48C78.5415 54.2989 75.7978 60.3398 70.9141 64.7938C66.0303 69.2478 59.4065 71.75 52.4998 71.75C45.5932 71.75 38.9694 69.2478 34.0856 64.7938C29.2018 60.3398 26.4582 54.2989 26.4582 48C26.4582 41.7011 29.2018 35.6602 34.0856 31.2062C38.9694 26.7522 45.5932 24.25 52.4998 24.25ZM52.4998 33.75C48.3558 33.75 44.3815 35.2513 41.4513 37.9237C38.521 40.5961 36.8748 44.2207 36.8748 48C36.8748 51.7793 38.521 55.4039 41.4513 58.0763C44.3815 60.7487 48.3558 62.25 52.4998 62.25C56.6438 62.25 60.6181 60.7487 63.5484 58.0763C66.4786 55.4039 68.1248 51.7793 68.1248 48C68.1248 44.2207 66.4786 40.5961 63.5484 37.9237C60.6181 35.2513 56.6438 33.75 52.4998 33.75Z" fill="#FCFAFD"/>
</svg>
