<svg xmlns="http://www.w3.org/2000/svg" viewBox="0 0 138.83 138.83"><defs><style>.cls-1,.cls-2{fill:none;stroke:#000;stroke-miterlimit:10;}.cls-1{stroke-width:3px;}.cls-3{font-size:12px;font-family:CenturySchoolbook, Century Schoolbook;}</style></defs><g id="Layer_2" data-name="Layer 2"><g id="Layer_1-2" data-name="Layer 1"><circle class="cls-1" cx="69.42" cy="69.42" r="67.92"/><circle class="cls-2" cx="69.42" cy="69.42" r="62.84"/></g><g id="Layer_2-2" data-name="Layer 2"><path d="M103.65,88.14c2.56-.76,2.91-2.66,2.83-4.93-.12-3-.06-6,0-9.08,0-2.23-.44-4-3-3.92s-3.57,1.47-3.58,4c0,3.82,0,7.64,0,11.46,0,.89.18,2-.74,2.49-1.25.61-1.72-.71-2.27-1.48-2.62-3.63-5.19-7.31-8.28-10.82-.27,4.24-2.06,8.56,1.68,12.5-1.94,1.13-3.83.66-5.79.48,3-6.51,2.69-12.85.23-19.54,7.86-1,8.2,8.19,13.62,11.43-.4-4,1.67-8.1-3.16-11.42,6.94,0,13-.3,19.06.09,5.22.34,8.32,4.41,8.3,9.8s-2.86,8.84-8,9.69a22,22,0,0,1-3.35.18c-2.34,0-4.68,0-7,0Zm6.87-9.28c0,1.71,0,3.43,0,5.14,0,1.48,0,3.07,1.83,3.35s3.5.2,4.7-1.59c1.89-2.8,1.72-11.12-.34-13.66-1.23-1.51-2.81-2.27-4.67-1.64s-1.47,2.23-1.51,3.65C110.49,75.69,110.52,77.28,110.52,78.86Z"/><path d="M67.28,69.54c-3.17,2.6-3.34,15.3-.25,18.58-2.58,1.15-4.86,1.24-8.42.33,3.5-4.06,1.15-8.94,1.29-13.56-1,3.56-2,7.12-3.06,10.66-.25.85-.41,2.06-1.37,2.17-1.31.16-1.41-1.27-1.74-2.18A94.63,94.63,0,0,0,49.8,75.46c.38,4.35-2.55,9.32,2.72,13a16.74,16.74,0,0,1-6.83.36c3-4.81,3.11-15.16.43-19,5.14-1.49,6.11-.94,7.91,4.21.72,2.06,1.06,4.32,2.68,6.32,1.16-1.63,1.37-3.46,1.84-5.17C60.3,68.76,60.7,68.49,67.28,69.54Z"/><path d="M84.27,78.66c0,5.65-3.67,10.06-8.42,10.13s-8.62-4.34-8.57-9.88c0-5.82,3.55-10,8.39-10C80.7,68.91,84.27,73,84.27,78.66Zm-4.18.24A17.33,17.33,0,0,0,79,72.5,3.55,3.55,0,0,0,75.54,70a3,3,0,0,0-2.87,2.1,18.18,18.18,0,0,0-.14,13,3.43,3.43,0,0,0,3.39,2.57,3.64,3.64,0,0,0,3.21-2.86A17.23,17.23,0,0,0,80.09,78.9Z"/><path d="M23,88.23c-2.5,1.16-4.3.88-6.61.39,4.41-4.4,5.17-10.42,6.83-15.9.68-2.26.61-3.58,2-3.67,1.6-.1,1.46,1.19,2.08,3.51.9,3.31,2.1,6.53,3.21,9.78.73,2.15,1.32,4.43,3.76,6.08a17.9,17.9,0,0,1-9.13.15c2.41-1.9,2.65-3.84.84-5.67-1.35-1.36-3.05-1.63-4.33,0C20.17,84.81,20,86.87,23,88.23Z"/><path d="M31.82,69.23H41.89c-3.72,1.23-3.76,3.62-3.65,6.17.1,2.37-.08,4.74,0,7.1.1,1.79-.84,4.32,2,4.69s5.58.13,6.93-3.16a45.89,45.89,0,0,0,1.28-4.7,16.17,16.17,0,0,1,.7,7.43,2.1,2.1,0,0,1-2.28,2.1c-5,0-10.11,0-15.52,0C35.17,85,35.29,72.93,31.82,69.23Z"/><text class="cls-3" transform="translate(29.07 106.92) scale(0.95 1)">Bakery &amp; Cake</text><path d="M84.58,35a11.51,11.51,0,0,0-2.94-.69,1.61,1.61,0,0,1-1.15-.73,11.33,11.33,0,0,0-2.09-2.38A12.68,12.68,0,0,0,72,28.48a17.31,17.31,0,0,0-5.57-.05c-4.5.69-7.65,3-11.15,5.58-1.65,1.23-3,2.45-5.63,4.87A80.54,80.54,0,0,0,38,53.25a1.67,1.67,0,0,0-.22.54,1.41,1.41,0,0,0,.35,1.38l.1,0c1,.45,3.41,1.71,5.12,2.35A48.07,48.07,0,0,0,58,60.75c4,.06,10.61.15,16.76-4.27h0a1.53,1.53,0,0,1,1.57-.14,8.58,8.58,0,0,0,.83.35C83.26,59,99.66,57,101,53,102.22,49.43,90.63,37.25,84.58,35Zm-6.84-.15c.41-.49.48-.49.51-.48.23,0,0,1.12-.16,2.6A29.11,29.11,0,0,1,77.4,41c-.24,1.13-.19,0-2.55,2.85-1.73,2.09-2.16,2.78-2.42,2.68s-.08-1.94.63-3.49c1.15-2.48.52-1.55.88-3.52,0-.29,2.38-2.4,2.71-3.11A7.34,7.34,0,0,1,77.74,34.82ZM62.6,46.75c2.38-2.28,1.87-2.17,3.13-4,.18-.28,3.14-1.31,3.83-2a11.08,11.08,0,0,1,1.92-1.42c.69-.43.77-.42.8-.41.24.08-.52,1.09-1.31,2.52a37.32,37.32,0,0,1-2.53,3.88c-.76,1.06-.21,0-4.15,2.46-2.87,1.82-3.67,2.43-3.92,2.3S61.11,48.18,62.6,46.75Zm-4.8,1.87c-1.87,1.82-1.48,2-2.39,2.65-1.29,1-2.28.88-7.6,1.76-3.89.65-5,1-5.22.63-.31-.51,1.64-2.15,3.87-3.15,3.57-1.6,6-.74,8.2-2.52a7.6,7.6,0,0,1,1.94-1.26A10.26,10.26,0,0,1,59.3,46c.93-.15,1-.08,1-.05C60.55,46.25,59.29,47.15,57.8,48.62ZM44.47,47.9c4.32-3,7.33-6.16,8.78-6.78,4-1.7,3.7-2.31,12.45-7.1,6.43-3.52,8.41-2.17,9.26-1.28a2.51,2.51,0,0,1,.19,2.46c-.88,2.3-3-1-7.21.43-3.88,1.27-4.41,3.11-13.35,7.91-.8.43-3.14,3.89-7.27,5.24-1.09.36-4.52,1.48-4.75.94C42.43,49.39,43.5,48.58,44.47,47.9Zm28.85,6.15a38.69,38.69,0,0,1-3.67,2.67c-1.07.71-.19-.11-4.71.75-3.3.62-4.25.9-4.44.68s1.33-1.5,3.2-2.27c3-1.24,3,.08,4.86-1.2.27-.19,2.81-1.46,3.67-1.81a11.12,11.12,0,0,1,2.28-.61c.78-.15.85-.11.88-.09C75.59,52.35,74.54,53,73.32,54.05Zm.13-3.47c-9,3.45-6.93,1.75-13.39,4.87-1.42.68-2.45.92-7.48,2.22-1.13.29-9.89-1-10-1.28-.23-.54,8.27-.5,9.26-1.11,3.73-2.29,8.15-2.77,9-3.1,9.4-3.7,8.15-1.53,11.66-3.69,3.79-2.32,3.51-3.94,5.71-3.07.72.29,2.4-2,2.43-1.17C80.65,45.51,80.25,48,73.45,50.58Z"/></g></g></svg>